<svg viewBox="0 0 100 100"
     xmlns="http://www.w3.org/2000/svg"
     xmlns:xlink="http://www.w3.org/1999/xlink">

  <style>
    .toga { fill: gray; }
    .body { fill: white; }
    .head { fill: white; }
    .headshot {
      fill: #4e8382;
      stroke: transparent;
      stroke-width: 0;
    }
    #headshot-outline {
      fill: transparent;
      stroke: black;
      stroke-width: 2;
    }
    .background { fill: transparent; }
    .outline {
      stroke: white;
      stroke-width:8.5
    }

    .toga { fill: {{ toga_color }}; }
    .person { fill: white; }
    .headshot {
      fill: {{ headshot_color }};
    }

  </style>
  <defs>
    <clipPath id="myClip">
      <!--
        Everything outside the circle will be
        clipped and therefor invisible.
      -->
      <circle cx="50" cy="50" r="47.5" />
    </clipPath>

    <g opacity="1" id="base_logo" >
      <!-- toga right -->

      <g transform="translate(-2 1) rotate(22 50 50) scale(1.15,1.15)">
      
    
        <g id="toga_outlines">
          <path d="M58 93 A 76 76 1 0 0 90 50" stroke="black" fill="transparent"/>
          <!-- togo top -->
          <path d="M90 50 C 80 40, 80 45, 57 38" stroke="black" fill="transparent"/>
          <!-- toga left -->
          <path d="M57 38 C 69 50, 50 69, 58 93" stroke="black" fill="transparent"/>
        
        
          <!-- left shoulder stroke -->
          <path d="M22 78 C 38 36, 48 64, 57 38" stroke="transparent" fill="transparent"/>
        <!--<path id="shadow_override" d="M59 93 A 76 76 1 0 0 90 50" stroke="black" stroke-width="2" fill="transparent"/>-->
        </g>
        
        <!-- toga -->
        <path id="toga" class="toga" d="M58 93 A 76 76 1 0 0 90 50 C 80 40, 80 45, 57 38 C 69 50, 50 69, 58 93" stroke="transparent" />
      
    
        <!-- body -->
        <path id="body" class="body person" d="M22 78 C 38 36, 48 64, 57 38 C 69 50, 50 69, 58 93 A 38 38 0 0 1 22 78" stroke="transparent"/>
      
        <g id="black_outlines">
    

          <!-- head circle -->
          <circle cx="38" cy="25" r="17" stroke="black" fill="transparent" stroke-width="2.5"/>
        </g>
        <circle id="head" class="head person" cx="38" cy="25" r="17" stroke="black" stroke-width="2.5"/>
    
        <path id="toga_outline" d="
          M90.7 50.7 C 80 40, 80 45, 56.5 38
          M57 38 C 69 50, 50 69, 58 93
          M22 78 C 38 36, 48 64, 57.5 38
          M59 93 A 76 76 1 0 0 90 50
          "
          stroke="black" fill="transparent" stroke-width="2"/>
      </g>
    </g>

  </defs>

  <rect class="background" width="100%" height="100%"/>

  <circle id="headshot" class="headshot" cx="50" cy="50" r="48"/>
  <use clip-path="url(#myClip)" xlink:href="#base_logo"/>
  <circle id="headshot-outline" cx="50" cy="50" r="47.5"/>

</svg>
